<svg width="16" height="16" viewBox="0 0 16 16" fill="none" xmlns="http://www.w3.org/2000/svg">
<g id="Icon ">
<circle id="Oval" opacity="0.15" cx="8" cy="8" r="8" fill="#36B37E"/>
<path id="Icon" d="M6.93261 10.5495L4.75814 8.38801C4.69737 8.32725 4.66699 8.24913 4.66699 8.15364C4.66699 8.05815 4.69737 7.98003 4.75814 7.91927L5.23991 7.45052C5.30067 7.38107 5.37663 7.34635 5.46777 7.34635C5.55892 7.34635 5.63921 7.38107 5.70866 7.45052L7.16699 8.90885L10.292 5.78385C10.3614 5.71441 10.4417 5.67969 10.5329 5.67969C10.624 5.67969 10.7 5.71441 10.7607 5.78385L11.2425 6.2526C11.3033 6.31337 11.3336 6.39149 11.3336 6.48698C11.3336 6.58246 11.3033 6.66059 11.2425 6.72135L7.40136 10.5495C7.3406 10.6189 7.26247 10.6536 7.16699 10.6536C7.0715 10.6536 6.99338 10.6189 6.93261 10.5495Z" fill="#36B37E"/>
</g>
</svg>
